<?xml version="1.0" encoding="UTF-8" standalone="no"?>
<!-- Generator: Adobe Illustrator 19.0.0, SVG Export Plug-In . SVG Version: 6.00 Build 0)  -->

<svg
   xmlns:dc="http://purl.org/dc/elements/1.1/"
   xmlns:cc="http://creativecommons.org/ns#"
   xmlns:rdf="http://www.w3.org/1999/02/22-rdf-syntax-ns#"
   xmlns:svg="http://www.w3.org/2000/svg"
   xmlns="http://www.w3.org/2000/svg"
   xmlns:sodipodi="http://sodipodi.sourceforge.net/DTD/sodipodi-0.dtd"
   xmlns:inkscape="http://www.inkscape.org/namespaces/inkscape"
   version="1.1"
   id="Capa_1"
   x="0px"
   y="0px"
   viewBox="0 0 84.997955 84.999947"
   xml:space="preserve"
   sodipodi:docname="user.svg"
   width="84.997955"
   height="84.999947"
   inkscape:version="0.92.2 (5c3e80d, 2017-08-06)"><metadata
     id="metadata43"><rdf:RDF><cc:Work
         rdf:about=""><dc:format>image/svg+xml</dc:format><dc:type
           rdf:resource="http://purl.org/dc/dcmitype/StillImage" /><dc:title></dc:title></cc:Work></rdf:RDF></metadata><defs
     id="defs41" /><sodipodi:namedview
     pagecolor="#ffffff"
     bordercolor="#666666"
     borderopacity="1"
     objecttolerance="10"
     gridtolerance="10"
     guidetolerance="10"
     inkscape:pageopacity="0"
     inkscape:pageshadow="2"
     inkscape:window-width="1920"
     inkscape:window-height="1001"
     id="namedview39"
     showgrid="false"
     fit-margin-top="16"
     fit-margin-left="16"
     fit-margin-right="16"
     fit-margin-bottom="16"
     inkscape:zoom="4.4528302"
     inkscape:cx="42.499949"
     inkscape:cy="42.5"
     inkscape:window-x="-9"
     inkscape:window-y="-9"
     inkscape:window-maximized="1"
     inkscape:current-layer="Capa_1" /><path
     style="fill:#e7eced"
     d="m 34.612949,57.551946 -7.907,4.313 c -0.464,0.253 -0.881,0.564 -1.269,0.903 4.61,3.887 10.561,6.232 17.063,6.232 6.454,0 12.367,-2.31 16.964,-6.144 -0.424,-0.358 -0.884,-0.68 -1.394,-0.934 l -8.467,-4.233 c -1.094,-0.547 -1.785,-1.665 -1.785,-2.888 v -3.322 c 0.238,-0.271 0.51,-0.619 0.801,-1.03 1.154,-1.63 2.027,-3.423 2.632,-5.304 1.086,-0.335 1.886,-1.338 1.886,-2.53 v -3.546 c 0,-0.78 -0.347,-1.477 -0.886,-1.965 v -5.126 c 0,0 1.053,-7.977 -9.75,-7.977 -10.803,0 -9.75,7.977 -9.75,7.977 v 5.126 c -0.54,0.488 -0.886,1.185 -0.886,1.965 v 3.546 c 0,0.934 0.491,1.756 1.226,2.231 0.886,3.857 3.206,6.633 3.206,6.633 v 3.24 c -10e-4,1.18 -0.647,2.267 -1.684,2.833 z"
     id="path2"
     inkscape:connector-curvature="0" /><g
     id="g6"
     transform="translate(15.999949,15.999946)"><path
       style="fill:#556080"
       d="M 26.953,0.004 C 12.32,-0.246 0.254,11.414 0.004,26.047 -0.138,34.344 3.56,41.801 9.448,46.76 c 0.385,-0.336 0.798,-0.644 1.257,-0.894 l 7.907,-4.313 c 1.037,-0.566 1.683,-1.653 1.683,-2.835 v -3.24 c 0,0 -2.321,-2.776 -3.206,-6.633 -0.734,-0.475 -1.226,-1.296 -1.226,-2.231 v -3.546 c 0,-0.78 0.347,-1.477 0.886,-1.965 v -5.126 c 0,0 -1.053,-7.977 9.75,-7.977 10.803,0 9.75,7.977 9.75,7.977 v 5.126 c 0.54,0.488 0.886,1.185 0.886,1.965 v 3.546 c 0,1.192 -0.8,2.195 -1.886,2.53 -0.605,1.881 -1.478,3.674 -2.632,5.304 -0.291,0.411 -0.563,0.759 -0.801,1.03 V 38.8 c 0,1.223 0.691,2.342 1.785,2.888 l 8.467,4.233 c 0.508,0.254 0.967,0.575 1.39,0.932 5.71,-4.762 9.399,-11.882 9.536,-19.9 C 53.246,12.32 41.587,0.254 26.953,0.004 Z"
       id="path4"
       inkscape:connector-curvature="0" /></g><g
     id="g8"
     transform="translate(15.999949,15.999946)" /><g
     id="g10"
     transform="translate(15.999949,15.999946)" /><g
     id="g12"
     transform="translate(15.999949,15.999946)" /><g
     id="g14"
     transform="translate(15.999949,15.999946)" /><g
     id="g16"
     transform="translate(15.999949,15.999946)" /><g
     id="g18"
     transform="translate(15.999949,15.999946)" /><g
     id="g20"
     transform="translate(15.999949,15.999946)" /><g
     id="g22"
     transform="translate(15.999949,15.999946)" /><g
     id="g24"
     transform="translate(15.999949,15.999946)" /><g
     id="g26"
     transform="translate(15.999949,15.999946)" /><g
     id="g28"
     transform="translate(15.999949,15.999946)" /><g
     id="g30"
     transform="translate(15.999949,15.999946)" /><g
     id="g32"
     transform="translate(15.999949,15.999946)" /><g
     id="g34"
     transform="translate(15.999949,15.999946)" /><g
     id="g36"
     transform="translate(15.999949,15.999946)" /></svg>