<?xml version="1.0" encoding="UTF-8" standalone="no"?>
<svg
   xmlns:dc="http://purl.org/dc/elements/1.1/"
   xmlns:cc="http://creativecommons.org/ns#"
   xmlns:rdf="http://www.w3.org/1999/02/22-rdf-syntax-ns#"
   xmlns:svg="http://www.w3.org/2000/svg"
   xmlns="http://www.w3.org/2000/svg"
   xmlns:sodipodi="http://sodipodi.sourceforge.net/DTD/sodipodi-0.dtd"
   xmlns:inkscape="http://www.inkscape.org/namespaces/inkscape"
   height="659.97949"
   viewBox="0 -1 497.64862 494.9846"
   width="662.66742"
   version="1.1"
   id="svg6"
   sodipodi:docname="create.svg"
   inkscape:version="0.92.2 (5c3e80d, 2017-08-06)">
  <metadata
     id="metadata12">
    <rdf:RDF>
      <cc:Work
         rdf:about="">
        <dc:format>image/svg+xml</dc:format>
        <dc:type
           rdf:resource="http://purl.org/dc/dcmitype/StillImage" />
        <dc:title></dc:title>
      </cc:Work>
    </rdf:RDF>
  </metadata>
  <defs
     id="defs10" />
  <sodipodi:namedview
     pagecolor="#ffffff"
     bordercolor="#666666"
     borderopacity="1"
     objecttolerance="10"
     gridtolerance="10"
     guidetolerance="10"
     inkscape:pageopacity="0"
     inkscape:pageshadow="2"
     inkscape:window-width="1920"
     inkscape:window-height="1001"
     id="namedview8"
     showgrid="false"
     inkscape:pagecheckerboard="true"
     inkscape:zoom="0.32"
     inkscape:cx="272.42685"
     inkscape:cy="521.68353"
     inkscape:window-x="-9"
     inkscape:window-y="-9"
     inkscape:window-maximized="1"
     inkscape:current-layer="svg6"
     fit-margin-top="64"
     fit-margin-left="64"
     fit-margin-right="64"
     fit-margin-bottom="64"
     units="px" />
  <path
     d="m 418.65242,297.48307 c -5.52343,0 -10,4.47656 -10,10 v 88.78906 c -0.0195,16.5625 -13.4375,29.98437 -30,30 H 98.06259 c -16.5625,-0.0156 -29.980469,-13.4375 -30,-30 V 135.68229 c 0.01953,-16.55859 13.4375,-29.98047 30,-30 h 88.78905 c 5.52344,0 10,-4.47656 10,-9.999997 0,-5.519531 -4.47656,-10 -10,-10 H 98.06259 C 70.461028,85.713543 48.093839,108.08073 48.062589,135.68229 v 260.59374 c 0.03125,27.60157 22.398439,49.96875 50.000001,50 h 280.58983 c 27.60157,-0.0312 49.96875,-22.39843 50,-50 v -88.79296 c 0,-5.52344 -4.47656,-10 -10,-10 z m 0,0"
     id="path2"
     style="fill:#ffffff"
     inkscape:connector-curvature="0" />
  <path
     d="m 424.69149,59.951824 c -17.57422,-17.574218 -46.06641,-17.574218 -63.64063,0 L 182.64461,238.35807 c -1.22266,1.22265 -2.10547,2.73828 -2.56641,4.40234 l -23.46093,84.69922 c -0.96485,3.47265 0.0156,7.1914 2.5625,9.74219 2.55078,2.54687 6.26953,3.52734 9.74218,2.5664 l 84.69922,-23.46484 c 1.66407,-0.46094 3.17969,-1.34375 4.40235,-2.56641 L 436.42586,135.32682 c 17.54688,-17.58593 17.54688,-46.054683 0,-63.640621 z M 204.43367,244.85807 350.44539,98.842449 397.53524,145.93229 251.51961,291.94791 Z m -9.40625,18.875 37.6211,37.625 -52.03907,14.41796 z M 422.28524,121.1862 411.67977,131.79167 364.58602,84.697918 375.19539,74.092449 c 9.76172,-9.761719 25.58985,-9.761719 35.35156,0 l 11.73829,11.734375 c 9.74609,9.773438 9.74609,25.589846 0,35.359376 z m 0,0"
     id="path4"
     style="fill:#ffffff"
     inkscape:connector-curvature="0" />
</svg>
