<?xml version="1.0" encoding="UTF-8" standalone="no"?>
<!-- Generator: Adobe Illustrator 19.0.0, SVG Export Plug-In . SVG Version: 6.00 Build 0)  -->

<svg
   xmlns:dc="http://purl.org/dc/elements/1.1/"
   xmlns:cc="http://creativecommons.org/ns#"
   xmlns:rdf="http://www.w3.org/1999/02/22-rdf-syntax-ns#"
   xmlns:svg="http://www.w3.org/2000/svg"
   xmlns="http://www.w3.org/2000/svg"
   xmlns:sodipodi="http://sodipodi.sourceforge.net/DTD/sodipodi-0.dtd"
   xmlns:inkscape="http://www.inkscape.org/namespaces/inkscape"
   version="1.1"
   id="Capa_1"
   x="0px"
   y="0px"
   viewBox="0 0 68 72"
   xml:space="preserve"
   sodipodi:docname="sign-out.svg"
   inkscape:version="0.92.2 (5c3e80d, 2017-08-06)"
   width="68"
   height="72"><metadata
     id="metadata43"><rdf:RDF><cc:Work
         rdf:about=""><dc:format>image/svg+xml</dc:format><dc:type
           rdf:resource="http://purl.org/dc/dcmitype/StillImage" /><dc:title></dc:title></cc:Work></rdf:RDF></metadata><defs
     id="defs41" /><sodipodi:namedview
     pagecolor="#ffffff"
     bordercolor="#666666"
     borderopacity="1"
     objecttolerance="10"
     gridtolerance="10"
     guidetolerance="10"
     inkscape:pageopacity="0"
     inkscape:pageshadow="2"
     inkscape:window-width="1920"
     inkscape:window-height="1001"
     id="namedview39"
     showgrid="false"
     inkscape:pagecheckerboard="true"
     inkscape:zoom="4.2142857"
     inkscape:cx="-49.525424"
     inkscape:cy="36"
     inkscape:window-x="-9"
     inkscape:window-y="-9"
     inkscape:window-maximized="1"
     inkscape:current-layer="Capa_1"
     fit-margin-top="8"
     fit-margin-left="8"
     fit-margin-right="8"
     fit-margin-bottom="8" /><g
     id="g6"
     style="fill:#ffffff"
     transform="translate(6,8)"><path
       d="m 35.31,5.042 c -0.532,-0.155 -1.085,0.15 -1.24,0.68 -0.155,0.53 0.149,1.085 0.68,1.24 C 44.906,9.932 52,19.405 52,30 52,43.233 41.233,54 28,54 14.767,54 4,43.233 4,30 4,19.392 11.105,9.915 21.279,6.953 21.809,6.799 22.114,6.244 21.96,5.714 21.807,5.184 21.252,4.875 20.721,5.033 9.698,8.241 2,18.508 2,30 2,44.337 13.663,56 28,56 42.337,56 54,44.337 54,30 54,18.522 46.314,8.26 35.31,5.042 Z"
       id="path2"
       style="fill:#ffffff"
       inkscape:connector-curvature="0" /><path
       d="m 28,27 c 0.553,0 1,-0.447 1,-1 V 1 C 29,0.447 28.553,0 28,0 27.447,0 27,0.447 27,1 v 25 c 0,0.553 0.447,1 1,1 z"
       id="path4"
       style="fill:#ffffff"
       inkscape:connector-curvature="0" /></g><g
     id="g8"
     transform="translate(6,8)" /><g
     id="g10"
     transform="translate(6,8)" /><g
     id="g12"
     transform="translate(6,8)" /><g
     id="g14"
     transform="translate(6,8)" /><g
     id="g16"
     transform="translate(6,8)" /><g
     id="g18"
     transform="translate(6,8)" /><g
     id="g20"
     transform="translate(6,8)" /><g
     id="g22"
     transform="translate(6,8)" /><g
     id="g24"
     transform="translate(6,8)" /><g
     id="g26"
     transform="translate(6,8)" /><g
     id="g28"
     transform="translate(6,8)" /><g
     id="g30"
     transform="translate(6,8)" /><g
     id="g32"
     transform="translate(6,8)" /><g
     id="g34"
     transform="translate(6,8)" /><g
     id="g36"
     transform="translate(6,8)" /></svg>