<?xml version="1.0" encoding="UTF-8" standalone="no"?>
<svg
   xmlns:dc="http://purl.org/dc/elements/1.1/"
   xmlns:cc="http://creativecommons.org/ns#"
   xmlns:rdf="http://www.w3.org/1999/02/22-rdf-syntax-ns#"
   xmlns:svg="http://www.w3.org/2000/svg"
   xmlns="http://www.w3.org/2000/svg"
   id="svg8"
   version="1.1"
   viewBox="0 0 270.93332 270.93332"
   height="270.93332mm"
   width="270.93332mm">
  <defs
     id="defs2" />
  <metadata
     id="metadata5">
    <rdf:RDF>
      <cc:Work
         rdf:about="">
        <dc:format>image/svg+xml</dc:format>
        <dc:type
           rdf:resource="http://purl.org/dc/dcmitype/StillImage" />
        <dc:title></dc:title>
      </cc:Work>
    </rdf:RDF>
  </metadata>
  <g
     transform="translate(-74.083336,80.522621)"
     id="layer1">
    <path
       id="rect819"
       transform="matrix(0.26458333,0,0,0.26458333,74.083336,-80.522621)"
       d="M 389.85742 114.14258 C 290.13742 114.14258 209.85742 194.42258 209.85742 294.14258 L 209.85742 729.85742 C 209.85742 829.57742 290.13742 909.85742 389.85742 909.85742 L 634.14258 909.85742 C 733.86258 909.85742 814.14258 829.57742 814.14258 729.85742 L 814.14258 321.63281 L 797.9043 320.66602 C 697.00811 314.68907 616.97946 232.23985 614.75195 130.40625 L 614.39844 114.14258 L 389.85742 114.14258 z M 357.71484 384 L 666.28516 384 L 666.28516 486.85742 L 357.71484 486.85742 L 357.71484 384 z M 357.71484 611.14258 L 666.28516 611.14258 L 666.28516 714 L 357.71484 714 L 357.71484 611.14258 z "
       style="opacity:1;fill:#ffffff;fill-opacity:1;stroke:none;stroke-width:5;stroke-linecap:butt;stroke-linejoin:miter;stroke-miterlimit:4;stroke-dasharray:none;stroke-dashoffset:0;stroke-opacity:1;paint-order:stroke fill markers" />
    <path
       id="rect819-2-9"
       d="m 244.76645,-50.322397 c 0.54512,24.92088 20.04867,45.0030409 44.72544,46.4648619 -0.54486,-24.9210109 -20.04866,-45.0028719 -44.72544,-46.4648619 z"
       style="opacity:1;fill:#ffffff;fill-opacity:1;stroke:none;stroke-width:7.9375;stroke-linecap:butt;stroke-linejoin:miter;stroke-miterlimit:4;stroke-dasharray:none;stroke-dashoffset:0;stroke-opacity:1;paint-order:stroke fill markers" />
  </g>
</svg>
