<?xml version="1.0" encoding="UTF-8" standalone="no"?>
<!-- Generator: Adobe Illustrator 19.0.0, SVG Export Plug-In . SVG Version: 6.00 Build 0)  -->

<svg
   xmlns:dc="http://purl.org/dc/elements/1.1/"
   xmlns:cc="http://creativecommons.org/ns#"
   xmlns:rdf="http://www.w3.org/1999/02/22-rdf-syntax-ns#"
   xmlns:svg="http://www.w3.org/2000/svg"
   xmlns="http://www.w3.org/2000/svg"
   xmlns:sodipodi="http://sodipodi.sourceforge.net/DTD/sodipodi-0.dtd"
   xmlns:inkscape="http://www.inkscape.org/namespaces/inkscape"
   version="1.1"
   id="Capa_1"
   x="0px"
   y="0px"
   viewBox="0 0 39.411 39.411"
   style="enable-background:new 0 0 39.411 39.411;"
   xml:space="preserve"
   sodipodi:docname="export.svg"
   inkscape:version="0.92.2 (5c3e80d, 2017-08-06)"><metadata
     id="metadata59"><rdf:RDF><cc:Work
         rdf:about=""><dc:format>image/svg+xml</dc:format><dc:type
           rdf:resource="http://purl.org/dc/dcmitype/StillImage" /><dc:title></dc:title></cc:Work></rdf:RDF></metadata><defs
     id="defs57" /><sodipodi:namedview
     pagecolor="#ffffff"
     bordercolor="#666666"
     borderopacity="1"
     objecttolerance="10"
     gridtolerance="10"
     guidetolerance="10"
     inkscape:pageopacity="0"
     inkscape:pageshadow="2"
     inkscape:window-width="718"
     inkscape:window-height="480"
     id="namedview55"
     showgrid="false"
     inkscape:pagecheckerboard="true"
     inkscape:zoom="5.988176"
     inkscape:cx="19.7055"
     inkscape:cy="19.7055"
     inkscape:window-x="0"
     inkscape:window-y="0"
     inkscape:window-maximized="0"
     inkscape:current-layer="Capa_1" /><g
     id="g22"
     style="fill:#ffffff"><g
       id="g14"
       style="fill:#ffffff"><g
         id="g12"
         style="fill:#ffffff"><path
           d="M19.706,23.411c-0.076,0-0.153-0.018-0.224-0.053L3.637,15.437c-0.169-0.085-0.276-0.258-0.276-0.447     s0.107-0.362,0.276-0.447l12.632-6.315c0.247-0.123,0.547-0.024,0.671,0.224c0.123,0.247,0.023,0.547-0.224,0.671L4.979,14.989     l14.727,7.363l14.727-7.363l-11.58-5.79c-0.247-0.124-0.347-0.424-0.224-0.671c0.125-0.247,0.425-0.345,0.671-0.224l12.475,6.237     c0.169,0.085,0.276,0.258,0.276,0.447s-0.107,0.362-0.276,0.447l-15.845,7.922C19.859,23.394,19.782,23.411,19.706,23.411z"
           id="path2"
           style="fill:#ffffff" /><path
           d="M19.706,39.411c-0.076,0-0.153-0.018-0.224-0.053L3.637,31.437c-0.247-0.124-0.347-0.424-0.224-0.671     c0.125-0.247,0.424-0.345,0.671-0.224l15.621,7.81l15.621-7.81c0.248-0.122,0.547-0.023,0.671,0.224     c0.123,0.247,0.023,0.547-0.224,0.671l-15.845,7.922C19.859,39.394,19.782,39.411,19.706,39.411z"
           id="path4"
           style="fill:#ffffff" /><path
           d="M35.55,31.489c-0.276,0-0.5-0.224-0.5-0.5v-16c0-0.276,0.224-0.5,0.5-0.5s0.5,0.224,0.5,0.5v16     C36.05,31.266,35.827,31.489,35.55,31.489z"
           id="path6"
           style="fill:#ffffff" /><path
           d="M19.706,39.411c-0.276,0-0.5-0.224-0.5-0.5v-16c0-0.276,0.224-0.5,0.5-0.5s0.5,0.224,0.5,0.5v16     C20.206,39.188,19.982,39.411,19.706,39.411z"
           id="path8"
           style="fill:#ffffff" /><path
           d="M3.861,31.489c-0.276,0-0.5-0.224-0.5-0.5v-16c0-0.276,0.224-0.5,0.5-0.5s0.5,0.224,0.5,0.5v16     C4.361,31.266,4.137,31.489,3.861,31.489z"
           id="path10"
           style="fill:#ffffff" /></g></g><g
       id="g20"
       style="fill:#ffffff"><path
         d="M19.706,13.238c-0.276,0-0.5-0.224-0.5-0.5V0.5c0-0.276,0.224-0.5,0.5-0.5s0.5,0.224,0.5,0.5v12.238    C20.206,13.015,19.982,13.238,19.706,13.238z"
         id="path16"
         style="fill:#ffffff" /><path
         d="M24.555,5.85c-0.128,0-0.256-0.049-0.354-0.146l-4.495-4.496l-4.497,4.496c-0.195,0.195-0.512,0.195-0.707,0    s-0.195-0.512,0-0.707l4.851-4.85C19.447,0.053,19.574,0,19.707,0l0,0c0.133,0,0.26,0.053,0.354,0.146l4.849,4.85    c0.195,0.195,0.195,0.512,0,0.707C24.811,5.801,24.683,5.85,24.555,5.85z"
         id="path18"
         style="fill:#ffffff" /></g></g><g
     id="g24" /><g
     id="g26" /><g
     id="g28" /><g
     id="g30" /><g
     id="g32" /><g
     id="g34" /><g
     id="g36" /><g
     id="g38" /><g
     id="g40" /><g
     id="g42" /><g
     id="g44" /><g
     id="g46" /><g
     id="g48" /><g
     id="g50" /><g
     id="g52" /></svg>