<?xml version="1.0" encoding="UTF-8" standalone="no"?>
<!-- Generator: Adobe Illustrator 18.0.0, SVG Export Plug-In . SVG Version: 6.00 Build 0)  -->

<svg
   xmlns:dc="http://purl.org/dc/elements/1.1/"
   xmlns:cc="http://creativecommons.org/ns#"
   xmlns:rdf="http://www.w3.org/1999/02/22-rdf-syntax-ns#"
   xmlns:svg="http://www.w3.org/2000/svg"
   xmlns="http://www.w3.org/2000/svg"
   xmlns:sodipodi="http://sodipodi.sourceforge.net/DTD/sodipodi-0.dtd"
   xmlns:inkscape="http://www.inkscape.org/namespaces/inkscape"
   version="1.1"
   id="Capa_1"
   x="0px"
   y="0px"
   viewBox="0 0 54 54"
   style="enable-background:new 0 0 54 54;"
   xml:space="preserve"
   sodipodi:docname="left-arrow.svg"
   inkscape:version="0.92.2 (5c3e80d, 2017-08-06)"><metadata
     id="metadata47"><rdf:RDF><cc:Work
         rdf:about=""><dc:format>image/svg+xml</dc:format><dc:type
           rdf:resource="http://purl.org/dc/dcmitype/StillImage" /></cc:Work></rdf:RDF></metadata><defs
     id="defs45" /><sodipodi:namedview
     pagecolor="#ffffff"
     bordercolor="#666666"
     borderopacity="1"
     objecttolerance="10"
     gridtolerance="10"
     guidetolerance="10"
     inkscape:pageopacity="0"
     inkscape:pageshadow="2"
     inkscape:window-width="1920"
     inkscape:window-height="1001"
     id="namedview43"
     showgrid="false"
     inkscape:zoom="4.3703704"
     inkscape:cx="27"
     inkscape:cy="27"
     inkscape:window-x="-9"
     inkscape:window-y="-9"
     inkscape:window-maximized="1"
     inkscape:current-layer="Capa_1" /><g
     id="g10"
     transform="rotate(180,27,27)"><g
       id="g6"><path
         style="fill:#4fba6f"
         d="m 27,1 v 0 c 14.359,0 26,11.641 26,26 v 0 C 53,41.359 41.359,53 27,53 v 0 C 12.641,53 1,41.359 1,27 v 0 C 1,12.641 12.641,1 27,1 Z"
         id="path2"
         inkscape:connector-curvature="0" /><path
         style="fill:#4fba6f"
         d="M 27,54 C 12.112,54 0,41.888 0,27 0,12.112 12.112,0 27,0 41.888,0 54,12.112 54,27 54,41.888 41.888,54 27,54 Z M 27,2 C 13.215,2 2,13.215 2,27 2,40.785 13.215,52 27,52 40.785,52 52,40.785 52,27 52,13.215 40.785,2 27,2 Z"
         id="path4"
         inkscape:connector-curvature="0" /></g><path
       style="fill:#ffffff"
       d="M 31.706,40 C 31.45,40 31.194,39.902 30.999,39.707 L 19.501,28.209 c -0.667,-0.667 -0.667,-1.751 0,-2.418 L 30.999,14.293 c 0.391,-0.391 1.023,-0.391 1.414,0 0.391,0.391 0.391,1.023 0,1.414 L 21.12,27 32.413,38.293 c 0.391,0.391 0.391,1.023 0,1.414 C 32.218,39.902 31.962,40 31.706,40 Z"
       id="path8"
       inkscape:connector-curvature="0" /></g><g
     id="g12" /><g
     id="g14" /><g
     id="g16" /><g
     id="g18" /><g
     id="g20" /><g
     id="g22" /><g
     id="g24" /><g
     id="g26" /><g
     id="g28" /><g
     id="g30" /><g
     id="g32" /><g
     id="g34" /><g
     id="g36" /><g
     id="g38" /><g
     id="g40" /></svg>