<?xml version="1.0" encoding="UTF-8" standalone="no"?>
<svg
   xmlns:dc="http://purl.org/dc/elements/1.1/"
   xmlns:cc="http://creativecommons.org/ns#"
   xmlns:rdf="http://www.w3.org/1999/02/22-rdf-syntax-ns#"
   xmlns:svg="http://www.w3.org/2000/svg"
   xmlns="http://www.w3.org/2000/svg"
   id="svg8"
   version="1.1"
   viewBox="0 0 132.29166 132.29166"
   height="132.29166mm"
   width="132.29166mm">
  <defs
     id="defs2" />
  <metadata
     id="metadata5">
    <rdf:RDF>
      <cc:Work
         rdf:about="">
        <dc:format>image/svg+xml</dc:format>
        <dc:type
           rdf:resource="http://purl.org/dc/dcmitype/StillImage" />
        <dc:title></dc:title>
      </cc:Work>
    </rdf:RDF>
  </metadata>
  <g
     transform="translate(-27.97024,-72.860107)"
     id="layer1">
    <rect
       y="72.860107"
       x="27.97024"
       height="132.29166"
       width="132.29166"
       id="rect854"
       style="opacity:1;fill:none;fill-opacity:1;stroke:none;stroke-width:0.39915586;stroke-linecap:butt;stroke-linejoin:miter;stroke-miterlimit:4;stroke-dasharray:none;stroke-dashoffset:0;stroke-opacity:1;paint-order:stroke fill markers" />
    <path
       id="path815"
       d="m 94.124078,111.87581 a 50.374745,30.994048 0 0 0 -49.93442,27.13013 50.374748,30.994048 0 0 0 49.93442,27.13013 50.374748,30.994048 0 0 0 49.918402,-27.13013 50.374745,30.994048 0 0 0 -49.918402,-27.13013 z m -0.0078,10.35906 A 16.771162,16.771162 0 0 1 110.8874,139.00594 16.771162,16.771162 0 0 1 94.116326,155.77701 16.771162,16.771162 0 0 1 77.34474,139.00594 16.771162,16.771162 0 0 1 94.116326,122.23487 Z"
       style="opacity:1;fill:#1a1a1a;fill-opacity:1;stroke:none;stroke-width:0.54860002;stroke-linecap:butt;stroke-linejoin:miter;stroke-miterlimit:4;stroke-dasharray:none;stroke-dashoffset:0;stroke-opacity:1;paint-order:stroke fill markers" />
  </g>
</svg>
