<?xml version="1.0" encoding="UTF-8" standalone="no"?>
<!-- Generator: Adobe Illustrator 19.0.0, SVG Export Plug-In . SVG Version: 6.00 Build 0)  -->

<svg
   xmlns:dc="http://purl.org/dc/elements/1.1/"
   xmlns:cc="http://creativecommons.org/ns#"
   xmlns:rdf="http://www.w3.org/1999/02/22-rdf-syntax-ns#"
   xmlns:svg="http://www.w3.org/2000/svg"
   xmlns="http://www.w3.org/2000/svg"
   xmlns:sodipodi="http://sodipodi.sourceforge.net/DTD/sodipodi-0.dtd"
   xmlns:inkscape="http://www.inkscape.org/namespaces/inkscape"
   version="1.1"
   id="Capa_1"
   x="0px"
   y="0px"
   viewBox="0 0 73.84253 73.84253"
   xml:space="preserve"
   sodipodi:docname="profile - Copy.svg"
   width="73.842529"
   height="73.842529"
   inkscape:version="0.92.2 (5c3e80d, 2017-08-06)"><metadata
     id="metadata43"><rdf:RDF><cc:Work
         rdf:about=""><dc:format>image/svg+xml</dc:format><dc:type
           rdf:resource="http://purl.org/dc/dcmitype/StillImage" /><dc:title></dc:title></cc:Work></rdf:RDF></metadata><defs
     id="defs41" /><sodipodi:namedview
     pagecolor="#ffffff"
     bordercolor="#666666"
     borderopacity="1"
     objecttolerance="10"
     gridtolerance="10"
     guidetolerance="10"
     inkscape:pageopacity="0"
     inkscape:pageshadow="2"
     inkscape:window-width="1920"
     inkscape:window-height="1001"
     id="namedview39"
     showgrid="false"
     fit-margin-top="0"
     fit-margin-left="0"
     fit-margin-right="0"
     fit-margin-bottom="0"
     inkscape:zoom="4.4528302"
     inkscape:cx="-1.4262439"
     inkscape:cy="39.671267"
     inkscape:window-x="-9"
     inkscape:window-y="-9"
     inkscape:window-maximized="1"
     inkscape:current-layer="Capa_1" /><path
     style="fill:#1a1a1a"
     d="m 29.083765,47.972765 -7.907,4.313 c -0.464,0.253 -0.881,0.564 -1.269,0.903 4.61,3.887 10.561,6.232 17.063,6.232 6.454,0 12.367,-2.31 16.964,-6.144 -0.424,-0.358 -0.884,-0.68 -1.394,-0.934 l -8.467,-4.233 c -1.094,-0.547 -1.785,-1.665 -1.785,-2.888 v -3.322 c 0.238,-0.271 0.51,-0.619 0.801,-1.03 1.154,-1.63 2.027,-3.423 2.632,-5.304 1.086,-0.335 1.886,-1.338 1.886,-2.53 v -3.546 c 0,-0.78 -0.347,-1.477 -0.886,-1.965 v -5.126 c 0,0 1.053,-7.977 -9.75,-7.977 -10.803,0 -9.75,7.977 -9.75,7.977 v 5.126 c -0.54,0.488 -0.886,1.185 -0.886,1.965 v 3.546 c 0,0.934 0.491,1.756 1.226,2.231 0.886,3.857 3.206,6.633 3.206,6.633 v 3.24 c -0.001,1.18 -0.647,2.267 -1.684,2.833 z"
     id="path2"
     inkscape:connector-curvature="0" /><g
     id="g8"
     transform="translate(11.59918,7.671262)" /><g
     id="g10"
     transform="translate(11.59918,7.671262)" /><g
     id="g12"
     transform="translate(11.59918,7.671262)" /><g
     id="g14"
     transform="translate(11.59918,7.671262)" /><g
     id="g16"
     transform="translate(11.59918,7.671262)" /><g
     id="g18"
     transform="translate(11.59918,7.671262)" /><g
     id="g20"
     transform="translate(11.59918,7.671262)" /><g
     id="g22"
     transform="translate(11.59918,7.671262)" /><g
     id="g24"
     transform="translate(11.59918,7.671262)" /><g
     id="g26"
     transform="translate(11.59918,7.671262)" /><g
     id="g28"
     transform="translate(11.59918,7.671262)" /><g
     id="g30"
     transform="translate(11.59918,7.671262)" /><g
     id="g32"
     transform="translate(11.59918,7.671262)" /><g
     id="g34"
     transform="translate(11.59918,7.671262)" /><g
     id="g36"
     transform="translate(11.59918,7.671262)" /><rect
     style="opacity:1;fill:none;fill-opacity:1;stroke:none;stroke-width:2.26764297;stroke-linecap:butt;stroke-linejoin:miter;stroke-miterlimit:4;stroke-dasharray:none;stroke-dashoffset:0;stroke-opacity:1;paint-order:stroke fill markers"
     id="rect831"
     width="73.842529"
     height="73.842529"
     x="0"
     y="0" /></svg>